<svg id="Calque_1" data-name="Calque 1" xmlns="http://www.w3.org/2000/svg" viewBox="0 0 142.37 103.26"><defs><style>.cls-1{fill:#68c2c1;}.cls-2{fill:#0db09e;}</style></defs><title>elements</title><path class="cls-1" d="M49.33,33.81c-1.22,0-29.15-1.82-38.28-3.34C7.13,29.82.38,28.76,0,24.67s8.76-5,13.35-6C31.83,14.57,50.4,11,69,7.21,80.5,4.89,92,2.54,103.64.5A36.62,36.62,0,0,1,114.25.28c10.93,1.31,17.3,7.46,19.36,18.34.59,3.16,1,6.37,1.27,9.57,1.11,12.36,3.87,28.13,4.93,40.49-1.51-3.54-5.55-7.68-7-11.26-3.44-8.7-6.75-19.77-14.34-25.74-5.76-4.52-12.2-7.61-19.65-6.72-15.13,1.81-29.8,4.31-44.88,6.5C52.47,31.68,50.73,32.88,49.33,33.81Z"/><path class="cls-2" d="M49.33,33.81c1.4-.93,2.47-2.72,6-3,15.08-2.2,28.45-4.05,43.58-5.86,7.45-.89,13.89,2.2,19.65,6.72,7.59,6,11.62,14.27,15.06,23,1.41,3.58,3.72,9.31,4.52,10.62s1.56,1.68,1.67,2.59c.91,7.79,1.87,15.58,2.37,23.4.26,4.1,1.07,10.57-3.13,11.79-3.35,1-6.15-1.49-7.86-4.38-2.73-4.59-5.36-9.26-7.7-14-3.3-6.74-6.36-13.59-9.4-20.44-7.8-17.54-21.65-25.82-40.24-27.35C65.68,36.16,57.42,35,49.33,33.81Z"/></svg>