<svg id="Calque_1" data-name="Calque 1" xmlns="http://www.w3.org/2000/svg" viewBox="0 0 358.97 153.12"><defs><style>.cls-1{fill:#eee;}</style></defs><title>elements</title><path class="cls-1" d="M343.74,35.63c-4.21-2.62-5-5.74-3-9.3C345.3,18,350.08,9.82,355.67,0c1.58,3.29,3.66,5.51,3.24,7.05C356,17.57,352.17,27.72,343.74,35.63Z"/><path class="cls-1" d="M314,65.75a1.56,1.56,0,0,1,2.62.82c.46,2.37.92,4.09.34,5.3-4.06,8.37-9.77,15.42-17.79,20.27-5.27-5.57-5.62-6.17-2.28-9.67C302,77.17,307.36,72.18,314,65.75Z"/><path class="cls-1" d="M122,143.47c.83-.5,1.73-1.53,2.56-1.47,6.41.42,12.82,1.05,19.22,1.63,3.65.33,5.69,2.39,6.61,6.46-7.41,4.56-15.07,3.06-22.63,1.4C124.61,150.8,124.28,149.85,122,143.47Z"/><path class="cls-1" d="M243.53,124.06c.38-.89.5-2.25,1.2-2.7,5.43-3.44,11-6.72,16.48-10,3.14-1.89,6-1.44,9.15,1.3-3.28,8.06-10.35,11.38-17.43,14.5C250,128.41,249.19,127.84,243.53,124.06Z"/><path class="cls-1" d="M183.4,142.76c7.17-3.74,15.38-4,23.16-5.69,1.05-.23,3.31,1.68,3.72,3a5,5,0,0,1-1.57,4.43,32.27,32.27,0,0,1-19,5.62C185.32,150,183.55,147.43,183.4,142.76Z"/><path class="cls-1" d="M27.74,109.27C15.27,105,7.07,99.06.8,90.61c-1.17-1.58-1-4.11.32-7.4,7.93,6.35,15.93,12.63,23.73,19.15C26,103.29,26.16,105.34,27.74,109.27Z"/><path class="cls-1" d="M60.45,122.65a172.2,172.2,0,0,1,24.49,10.22c1.53.76,2.21,3.21,4.07,6.1-9.8,1.58-17-1.87-23.91-5.9C61.77,131.13,59,128.4,60.45,122.65Z"/></svg>